# xmcd
#
# Track frame offsets:
#	150
#	14200
#	25825
#	35262
#	50412
#	64875
#	82962
#	94800
#	108712
#	123212
#	135235
#	146947
#
# Disc length: 2174
#
# Revision: 2
# Processed by: cddbd v1.5.1PL0 Copyright (c) Steve Scherf et al.
# Submitted via: audiograbber 1.80
# Normalized: r1:DSETVAR1
#
DISCID=a4087c0c
DTITLE=Various Artist - Number One Country Hits Of The 70's [CD3]
DYEAR=1900
DGENRE=
TTITLE0=George Jones - The Grand Tour
TTITLE1=Marty Robbins - Among My Souvenirs
TTITLE2=Willie Nelson - If You've Got The Money I've Got The Time
TTITLE3=Tammy Wynette - You And Me
TTITLE4=Johnny Duncan and Janie Frickie - Come A Little Bit Closer
TTITLE5=Johnny Cash - One Piece At A Time
TTITLE6=Johnny Paycheck - Take This Job And Shove It
TTITLE7=Moe Bandy - I Cheated Me Right Out Of You
TTITLE8=Charlie Rich With Janie Frickie - On My Knees
TTITLE9=Larry Gatlin And The Gatlin Brothers Band - All The Gold In California
TTITLE10=Moe Bandy and Joe Stampley - Just Good Ol' Boys
TTITLE11=The Charlie Daniels Band - The Devil Went Down To Georgia
EXTD=
EXTT0=
EXTT1=
EXTT2=
EXTT3=
EXTT4=
EXTT5=
EXTT6=
EXTT7=
EXTT8=
EXTT9=
EXTT10=
EXTT11=
PLAYORDER=
